{
    "asset" : {
        "generator" : "Khronos glTF Blender I/O v0.9.36",
        "version" : "2.0"
    },
    "scene" : 0,
    "scenes" : [
        {
            "name" : "Scene",
            "nodes" : [
                0,
                1
            ]
        }
    ],
    "nodes" : [
        {
            "name" : "Empty",
            "rotation" : [
                0.5,
                0.4999999701976776,
                -0.5000000596046448,
                0.4999999403953552
            ],
            "translation" : [
                0,
                -0.009115255437791348,
                0.195403054356575
            ]
        },
        {
            "mesh" : 0,
            "name" : "Sphere",
            "scale" : [
                0.4466284215450287,
                0.4466284215450287,
                0.4466284215450287
            ],
            "translation" : [
                0.06140303611755371,
                -0.5397228002548218,
                0.03293437138199806
            ]
        }
    ],
    "meshes" : [
        {
            "name" : "Sphere.003",
            "primitives" : [
                {
                    "attributes" : {
                        "POSITION" : 0,
                        "NORMAL" : 1,
                        "TEXCOORD_0" : 2
                    },
                    "indices" : 3
                }
            ]
        }
    ],
    "accessors" : [
        {
            "bufferView" : 0,
            "componentType" : 5126,
            "count" : 11057,
            "max" : [
                0.9872303605079651,
                9.098237037658691,
                3.2877016067504883
            ],
            "min" : [
                -0.9872322082519531,
                -7.543948173522949,
                -3.287039279937744
            ],
            "type" : "VEC3"
        },
        {
            "bufferView" : 1,
            "componentType" : 5126,
            "count" : 11057,
            "type" : "VEC3"
        },
        {
            "bufferView" : 2,
            "componentType" : 5126,
            "count" : 11057,
            "type" : "VEC2"
        },
        {
            "bufferView" : 3,
            "componentType" : 5123,
            "count" : 48000,
            "type" : "SCALAR"
        }
    ],
    "bufferViews" : [
        {
            "buffer" : 0,
            "byteLength" : 132684,
            "byteOffset" : 0
        },
        {
            "buffer" : 0,
            "byteLength" : 132684,
            "byteOffset" : 132684
        },
        {
            "buffer" : 0,
            "byteLength" : 88456,
            "byteOffset" : 265368
        },
        {
            "buffer" : 0,
            "byteLength" : 96000,
            "byteOffset" : 353824
        }
    ],
    "buffers" : [
        {
            "byteLength" : 449824,
            "uri" : "data:application/octet-stream;base64,"
        }
    ]
}
