{
    "asset" : {
        "generator" : "Khronos glTF Blender I/O v0.9.36",
        "version" : "2.0"
    },
    "scene" : 0,
    "scenes" : [
        {
            "name" : "Scene",
            "nodes" : [
                0,
                1
            ]
        }
    ],
    "nodes" : [
        {
            "name" : "Empty",
            "rotation" : [
                0.5,
                -0.5,
                0.4999999701976776,
                0.5000000596046448
            ],
            "scale" : [
                155.84413146972656,
                155.8441162109375,
                155.8441162109375
            ],
            "translation" : [
                0,
                -14.726101875305176,
                320.2807312011719
            ]
        },
        {
            "mesh" : 0,
            "name" : "Cube.003",
            "rotation" : [
                0,
                -1,
                0,
                7.549790126404332e-08
            ],
            "scale" : [
                0.8004864454269409,
                0.8004864454269409,
                0.8004864454269409
            ],
            "translation" : [
                -0.9536521434783936,
                -0.6314386129379272,
                1.246677041053772
            ]
        }
    ],
    "materials" : [
        {
            "doubleSided" : true,
            "name" : "Material",
            "pbrMetallicRoughness" : {
                "baseColorFactor" : [
                    0.800000011920929,
                    0.800000011920929,
                    0.800000011920929,
                    1
                ],
                "metallicFactor" : 0,
                "roughnessFactor" : 0.4000000059604645
            }
        }
    ],
    "meshes" : [
        {
            "name" : "Cube.003",
            "primitives" : [
                {
                    "attributes" : {
                        "POSITION" : 0,
                        "NORMAL" : 1,
                        "TEXCOORD_0" : 2
                    },
                    "indices" : 3,
                    "material" : 0
                }
            ]
        }
    ],
    "accessors" : [
        {
            "bufferView" : 0,
            "componentType" : 5126,
            "count" : 5865,
            "max" : [
                1.2471567392349243,
                8.047654151916504,
                21.02852439880371
            ],
            "min" : [
                -3.6476969718933105,
                -3.3515021800994873,
                -16.546974182128906
            ],
            "type" : "VEC3"
        },
        {
            "bufferView" : 1,
            "componentType" : 5126,
            "count" : 5865,
            "type" : "VEC3"
        },
        {
            "bufferView" : 2,
            "componentType" : 5126,
            "count" : 5865,
            "type" : "VEC2"
        },
        {
            "bufferView" : 3,
            "componentType" : 5123,
            "count" : 11025,
            "type" : "SCALAR"
        }
    ],
    "bufferViews" : [
        {
            "buffer" : 0,
            "byteLength" : 70380,
            "byteOffset" : 0
        },
        {
            "buffer" : 0,
            "byteLength" : 70380,
            "byteOffset" : 70380
        },
        {
            "buffer" : 0,
            "byteLength" : 46920,
            "byteOffset" : 140760
        },
        {
            "buffer" : 0,
            "byteLength" : 22050,
            "byteOffset" : 187680
        }
    ],
    "buffers" : [
        {
            "byteLength" : 209732,
            "uri" : "data:application/octet-stream;base64,"
        }
    ]
}
